<?xml version="1.0" encoding="UTF-8" standalone="no"?>
<!-- Created with Inkscape (http://www.inkscape.org/) -->

<svg
   xmlns:dc="http://purl.org/dc/elements/1.1/"
   xmlns:cc="http://creativecommons.org/ns#"
   xmlns:rdf="http://www.w3.org/1999/02/22-rdf-syntax-ns#"
   xmlns:svg="http://www.w3.org/2000/svg"
   xmlns="http://www.w3.org/2000/svg"
   xmlns:sodipodi="http://sodipodi.sourceforge.net/DTD/sodipodi-0.dtd"
   xmlns:inkscape="http://www.inkscape.org/namespaces/inkscape"
   width="7.0020642mm"
   height="13.147227mm"
   viewBox="0 0 24.810464 46.584663"
   id="svg2"
   version="1.1"
   inkscape:version="0.91 r13725"
   sodipodi:docname="Lavander All Cancer ribbon.svg">
  <defs
     id="defs4">
    <clipPath
       id="clipEmfPath1"
       clipPathUnits="userSpaceOnUse">
      <path
         inkscape:connector-curvature="0"
         id="path3341"
         d="m 5.00114,-1.25029 511.36686,0 0,867.69829 -511.36686,0 z" />
    </clipPath>
    <pattern
       y="0"
       x="0"
       height="6"
       width="6"
       patternUnits="userSpaceOnUse"
       id="EMFhbasepattern" />
    <clipPath
       id="clipEmfPath1-9"
       clipPathUnits="userSpaceOnUse">
      <path
         inkscape:connector-curvature="0"
         id="path3734"
         d="m 5.00114,-1.25029 497.61386,0 0,175.04029 -497.61386,0 z" />
    </clipPath>
    <pattern
       y="0"
       x="0"
       height="6"
       width="6"
       patternUnits="userSpaceOnUse"
       id="EMFhbasepattern-1" />
    <clipPath
       id="clipEmfPath1-97"
       clipPathUnits="userSpaceOnUse">
      <path
         inkscape:connector-curvature="0"
         id="path3839"
         d="m 5.00114,-1.25029 497.61386,0 0,175.04029 -497.61386,0 z" />
    </clipPath>
    <pattern
       y="0"
       x="0"
       height="6"
       width="6"
       patternUnits="userSpaceOnUse"
       id="EMFhbasepattern-12" />
  </defs>
  <sodipodi:namedview
     id="base"
     pagecolor="#ffffff"
     bordercolor="#666666"
     borderopacity="1.0"
     inkscape:pageopacity="0.0"
     inkscape:pageshadow="2"
     inkscape:zoom="5.6"
     inkscape:cx="73.671679"
     inkscape:cy="30.842687"
     inkscape:document-units="px"
     inkscape:current-layer="layer1"
     showgrid="false"
     fit-margin-top="0"
     fit-margin-left="0"
     fit-margin-right="0"
     fit-margin-bottom="0"
     inkscape:window-width="1366"
     inkscape:window-height="706"
     inkscape:window-x="-8"
     inkscape:window-y="-8"
     inkscape:window-maximized="1" />
  <metadata
     id="metadata7">
    <rdf:RDF>
      <cc:Work
         rdf:about="">
        <dc:format>image/svg+xml</dc:format>
        <dc:type
           rdf:resource="http://purl.org/dc/dcmitype/StillImage" />
        <dc:title></dc:title>
      </cc:Work>
    </rdf:RDF>
  </metadata>
  <g
     inkscape:label="Layer 1"
     inkscape:groupmode="layer"
     id="layer1"
     transform="translate(-114.78142,-336.61301)">
    <path
       inkscape:connector-curvature="0"
       id="path3854"
       d="m 115.43196,348.60668 c 0.022,-1.30115 2.64639,-11.8428 11.95324,-11.51199 9.30656,0.3308 11.53385,10.3211 11.51184,11.62229 -0.022,1.30115 -7.71878,-3.7712 -11.62219,-3.79324 -3.90342,-0.0221 -11.86491,4.98413 -11.84289,3.68294 z"
       style="fill:#d7aec2;fill-opacity:1;fill-rule:evenodd;stroke:none" />
    <path
       inkscape:connector-curvature="0"
       id="path3856"
       d="m 115.43196,348.60668 c 0.022,-1.30115 2.64639,-11.8428 11.95324,-11.51199 9.30656,0.3308 11.53385,10.3211 11.51184,11.62229 -0.022,1.30115 -7.71878,-3.7712 -11.62219,-3.79324 -3.90342,-0.0221 -11.86491,4.98413 -11.84289,3.68294"
       style="fill:none;stroke:#000000;stroke-width:0.94830716px;stroke-linecap:butt;stroke-linejoin:round;stroke-miterlimit:4;stroke-dasharray:none;stroke-opacity:1" />
    <path
       inkscape:connector-curvature="0"
       id="path3858"
       d="m 134.04536,339.54264 c 0.88223,0.97036 7.05725,6.26324 4.25619,12.76906 -2.80077,6.48377 -14.99644,25.05303 -18.23833,30.41187 -1.45542,-2.91084 -1.89653,-3.13154 -4.80765,-8.04954 3.24188,-5.60155 14.68769,-22.38437 17.79721,-28.18449 3.10981,-5.80012 -0.022,-7.43207 0.99258,-6.9469 z"
       style="fill:#d7aec2;fill-opacity:1;fill-rule:evenodd;stroke:none" />
    <path
       transform="matrix(0.28222222,0,0,0.28222222,80.653426,334.80111)"
       inkscape:connector-curvature="0"
       id="path3860"
       d="m 189.184,16.8007 c 3.126,3.4383 25.006,22.1926 15.081,45.2447 -9.924,22.974 -53.137,88.7706 -64.624,107.7586 -5.157,-10.314 -6.72,-11.096 -17.035,-28.522 11.487,-19.848 52.043,-79.3147 63.061,-99.8663 11.019,-20.5516 -0.078,-26.3341 3.517,-24.615"
       clip-path="url(#clipEmfPath1-97)"
       style="fill:none;stroke:#000000;stroke-width:3.36014342px;stroke-linecap:butt;stroke-linejoin:round;stroke-miterlimit:4;stroke-dasharray:none;stroke-opacity:1" />
    <path
       inkscape:connector-curvature="0"
       id="path3862"
       d="m 120.30593,339.47649 c -0.88222,0.97036 -7.05724,6.26324 -4.25647,12.74701 2.80077,6.50582 15.01874,25.07491 18.26062,30.43403 1.45542,-2.91112 1.89654,-3.13154 4.80766,-8.04954 -3.24189,-5.60155 -14.68769,-22.38449 -17.7975,-28.1846 -3.13154,-5.80012 0.0223,-7.45414 -1.01431,-6.9469 z"
       style="fill:#d7aec2;fill-opacity:1;fill-rule:evenodd;stroke:none" />
    <path
       transform="matrix(0.28222222,0,0,0.28222222,80.653426,334.80111)"
       inkscape:connector-curvature="0"
       id="path3864"
       d="m 140.501,16.5663 c -3.126,3.4383 -25.006,22.1926 -15.082,45.1666 9.924,23.0521 53.216,88.8481 64.703,107.8371 5.157,-10.315 6.72,-11.096 17.035,-28.522 C 195.67,121.2 155.114,61.7329 144.095,41.1813 132.999,20.6297 144.174,14.769 140.501,16.5663"
       clip-path="url(#clipEmfPath1-97)"
       style="fill:none;stroke:#000000;stroke-width:3.36014342px;stroke-linecap:butt;stroke-linejoin:round;stroke-miterlimit:4;stroke-dasharray:none;stroke-opacity:1" />
  </g>
</svg>
